# xmcd
#
# Track frame offsets:
#	150
#	18546
#	31803
#
# Disc length: 634 seconds
#
# Revision: 1
# Processed by: cddbd v1.5.2PL0 Copyright (c) Steve Scherf et al.
# Submitted via: Jack! The Knife
#
DISCID=19027803
DTITLE=Motorhead - Hammered
DYEAR=2002
DGENRE=Heavy Metal
TTITLE0=Sinner
TTITLE1=Tokyo
TTITLE2=The Game
EXTD=
EXTT0=
EXTT1=
EXTT2=
PLAYORDER=
